# xmcd CD database file
#
# Track frame offsets:
#	150
#	13442
#	31522
#	42010
#	57417
#	66062
#	81885
#	91182
#	108477
#	118342
#	130652
#	140915
#	156390
#	164509
#
# Disc length: 2412 seconds
#
# Revision: 2
# Processed by: cddbd v1.5.1PL2 Copyright (c) Steve Scherf et al.
# Submitted via: CDex 1.51
#
DISCID=c1096a0e
DTITLE=Mixt Company - Something Old, Something New, Something Borrowed, Something Bluegrass
DYEAR=1997
DGENRE=Country
TTITLE0=Virginia Bound
TTITLE1=How Could I Love Him So Much
TTITLE2=My Blue Tears
TTITLE3=Wildwood Flower
TTITLE4=I Know I Haven't Got The Right
TTITLE5=The Way You Love
TTITLE6=Oh Ye Of Little Faith
TTITLE7=Finer Things
TTITLE8=Everchanging Woman
TTITLE9=I Know You're Married
TTITLE10=Long Time Gone
TTITLE11=Timberline
TTITLE12=I've Just Seen A Face
TTITLE13=I'm So Thankful
EXTD=YEAR: 1997
EXTT0=
EXTT1=
EXTT2=
EXTT3=
EXTT4=
EXTT5=
EXTT6=
EXTT7=
EXTT8=
EXTT9=
EXTT10=
EXTT11=
EXTT12=
EXTT13=
PLAYORDER=
